<?xml version="1.0" encoding="UTF-8"?>
<svg id="Layer_2" data-name="Layer 2" xmlns="http://www.w3.org/2000/svg" viewBox="0 0 880.98 430.36">
  <defs>
    <style>
      .cls-1 {
        fill: #fff;
      }

      .cls-1, .cls-2 {
        stroke-width: 0px;
      }

      .cls-2 {
        fill: #a0d606;
      }
    </style>
  </defs>
  <g id="Layer_1-2" data-name="Layer 1">
    <path class="cls-1" d="m73.88,5.38c23.11-7.75,48.89-7,71.71,1.46,30.58,11.14,55.04,37.34,64.27,68.54,3.53,11.08,4.64,22.77,4.44,34.35,15.42-.52,31.13.46,45.79,5.62,26.49,8.73,49.05,28.4,61.88,53.11,12.31,22.76,15.99,49.96,10.37,75.21-4.35,19.23-13.77,37.37-27.42,51.63-17.15,17.94-40.61,29.95-65.37,32.48-7.96.96-15.99.62-23.98.65-59.35-.02-118.71,0-178.06-.02-6.91-.16-14.13.9-20.68-1.89C6.83,322.79-.2,312.6.03,301.9.01,242.24,0,182.58.01,122.92c.2-9-.5-18.07.8-27.02,2.32-23.13,12.68-45.24,28.5-62.22,12.14-13,27.62-22.88,44.57-28.3Zm.29,61.22c-12.14,9.97-18.78,25.73-18.84,41.3-.12,55.47,0,110.94-.07,166.42,56.74-.01,113.48,0,170.22-.03,17.4.47,34.75-8.46,44.36-23,7.48-10.85,10.81-24.37,9.51-37.46-1.18-13.89-7.98-27.13-18.31-36.45-9.27-8.03-21.25-13.15-33.61-13.16-14.65.09-29.3-.07-43.95-.04-12.61.44-24-10.86-24.35-23.32-.07-11.32,0-22.63-.03-33.95.12-16.16-7.49-32.42-20.52-42.11-9.18-7.54-21.34-11.15-33.13-10.51-11.49.1-22.45,5.19-31.28,12.31Z"/>
    <g>
      <path class="cls-1" d="m562.43,19.75c14.84-12.18,33.85-19.16,53.04-19.61,6.33-.13,12.67-.06,19.02-.11,9.47-.27,19.36,4.24,24.39,12.46,7.16,10.55,5.39,26.21-3.97,34.88-3.97,3.61-8.95,6.14-14.27,6.95-11.66.92-24.11-1.87-35.03,3.49-7.85,3.67-12.7,11.42-15.69,19.25-3.44,8.72-5.55,18-6.03,27.36,10.2-.05,20.4.06,30.6.02,8.88-.16,17.4,4.75,22.33,12.02,4.35,5.99,4.98,13.8,3.95,20.92-2.11,11.49-12.6,20.82-24.33,21.27-10.81.12-21.63.04-32.45.04-.34,47.73-.02,95.46-.16,143.19-.34,8.72-5.08,17.14-12.45,21.83-11.3,7.51-27.63,6.19-37.36-3.36-5.54-5.18-8.47-12.93-8.15-20.47.01-47.06-.05-94.12.04-141.18-9.15-.5-18.89,1.56-27.42-2.8-13.42-6.14-18.8-24.16-11.79-36.96,4.56-8.62,13.97-14.64,23.81-14.54,5.11-.02,10.23.06,15.35-.01.12-11.7,2.18-23.35,5.2-34.64,5.59-19.08,15.85-37.26,31.37-50Z"/>
      <path class="cls-1" d="m754.57,103.53c23.45-3.2,48.07-.39,69.55,9.85,25.1,11.8,45.47,33.8,53.94,60.35,2.77,8.66,4.17,18.2,1.43,27.05-2.1,7.6-8.19,13.52-15.05,17.04-4.38,2.34-9.36,2.93-14.14,3.93-44.44,9.07-88.9,18.08-133.37,26.96,8.81,14.97,24.81,25.08,41.78,27.94l.65.49c22.92,3.64,48.23.28,66.85-14.49,7.56-6.66,18.94-9.01,28.26-4.79,8.16,3.02,14.2,10.62,15.78,19.12,1.73,6.29-.4,12.85-3.43,18.38-3.09,5.38-8.18,9.18-13.1,12.78-18.36,12.53-40.05,19.86-62.15,21.84-19.35,1.66-39.25.93-57.83-5.2-21.65-6.82-41.14-20.18-55.42-37.8-14.59-17.76-22.83-40.3-24.22-63.16-1.1-26.9,6.91-54.37,23.68-75.6,18.39-24.19,46.61-40.79,76.79-44.69Zm-29.43,71.03c-7.77,8.55-13.69,19.27-15.24,30.83,38.1-8.35,76.41-15.71,114.56-23.79-5.61-10.1-14.99-18-25.74-22.16-24.58-9.55-55.3-4.55-73.58,15.12Z"/>
      <path class="cls-1" d="m415.92,103.67c6.52-2.04,13.76-1.73,20.09.85,9.51,3.68,16.73,13.09,17.31,23.33.39,24.02.17,48.04.28,72.07-.58,12,.16,24.02,0,36.03-.05,21.34.05,42.68-.06,64.02.18,9.04-4.16,18.14-11.66,23.29-7.07,4.73-16.09,6.57-24.38,4.47-8.56-1.99-16.38-7.79-19.72-16.07-2.5-4.9-2.06-10.47-2.32-15.78.33-14.97.11-29.95.04-44.91.55-10.03-.34-20.06.15-30.08.16-16.66-.22-33.31-.31-49.96.51-13.34.24-26.7.31-40.05-.16-12.13,8.29-24.25,20.27-27.21Z"/>
    </g>
    <path class="cls-2" d="m417.85,5.37c8.7-2.21,17.89.24,25.44,4.74,8,5.68,13.71,14.87,14.34,24.77.75,13.4-7.66,26.87-20.3,31.63-11.2,4.57-24.82,2.59-33.97-5.43-12.05-10-14.69-29.22-5.67-42.06,4.41-7.21,12.07-11.76,20.16-13.65Z"/>
    <g>
      <path class="cls-1" d="m1.5,383.78c.02-4.32,6.54-6.68,9.4-3.43,3.06,3.49,5.49,7.46,8.16,11.25,2.35-3.98,4.64-8.12,8.01-11.35,2.62-2.26,7.83-1.8,9,1.83,1.2,1.98-.67,3.83-1.63,5.46-3.43,4.61-6.9,9.2-10.51,13.67-.26,5.56.22,11.14-.32,16.69.03,1.45-1.21,2.65-2.69,2.56-2.26.09-5.08.46-6.88-1.2-.89-5.77-.28-11.68-.37-17.5-3.4-6.38-9.35-11.24-12.15-17.99Z"/>
      <path class="cls-1" d="m67.26,379.65c6.48-1.45,13.81-.59,19.11,3.68,10.78,8.03,10.02,26.73-1.08,34.16-5.47,3.76-12.61,3.89-18.92,2.72-11.05-2.98-17.02-16.18-13.58-26.77,2.1-6.61,7.58-12.29,14.47-13.8Zm1.82,9.3c-7,4.04-7.78,14.92-2.1,20.43,2.88,3.51,8.51,3.67,11.75.57,4.01-3.31,4.14-9.04,3.5-13.78-.95-5.67-7.74-10.23-13.15-7.23Z"/>
      <path class="cls-1" d="m115.85,379.43c2.93-.91,7.82-.64,8.27,3.23.53,7.74-.12,15.51.38,23.25-.04,2.34,2.18,3.72,3.93,4.85,4.6,3.14,11.86-1.4,11.25-6.9.16-7.06-.07-14.11.19-21.16-.02-2.18,2.14-3.79,4.23-3.58,2.28-.08,5.96-.04,6.36,2.93.37,7.84.3,15.73-.05,23.58-.1,7.61-6.87,13.73-14.08,14.83-4.83.61-10.15.72-14.45-1.91-5.31-2.84-8.57-8.82-8.53-14.78-.1-6.68-.17-13.37-.06-20.04-.16-1.79.77-3.73,2.55-4.3Z"/>
      <path class="cls-1" d="m172.16,384.67c-.4-3.08,2.66-5.1,5.39-5.29,6.3-.55,13.06-1,18.93,1.8,6.06,2.84,9.07,11.33,5.24,17.05-1.86,3.09-5.16,4.94-8.6,5.73,3.45,2.45,6.48,5.46,9.2,8.69,1.08,1.4,2.23,3.21,1.62,5.07-1.72,3.96-8.04,4.03-10.38.62-3.72-4.31-7.14-8.87-10.8-13.23-.06,4.01.42,8.06-.18,12.06-.52,4.73-7.93,4.35-10.15,1.39-.75-11.25-.06-22.6-.28-33.89Zm10.59,3.43c-.14,2.85-.09,5.7.15,8.55,2.24.11,4.56.61,6.75-.07,2.65-.88,3.96-4.57,1.91-6.71-2.18-2.59-5.84-2.09-8.82-1.78Z"/>
      <path class="cls-1" d="m256.6,383.71c-.87-6.39,11.56-6.35,10.83-.02.11,9.51,0,19.02.19,28.54,4.02.05,8.1-.19,12.09.4,3,1.35,2.84,7.57-.93,7.85-5.95.1-11.92.39-17.86-.03-1.72,0-2.99-1.22-4.25-2.2-.23-11.51-.02-23.03-.08-34.55Z"/>
      <path class="cls-1" d="m298.8,384.72c-.11-2.22.4-5.27,3.15-5.48,2.67-.41,7.59-.33,7.5,3.43.13,12.09.22,24.17-.09,36.26-2.59,2.01-6.22,2.02-9.14.82-1.53-.9-1.31-2.89-1.44-4.39-.11-10.21,0-20.43.02-30.64Z"/>
      <path class="cls-1" d="m333.25,379.47c7.25-.66,14.56-.39,21.82,0,.55,2.57.5,5.21.19,7.81-4.54.47-9.11.42-13.67.52-.05,2.77-.1,5.54-.08,8.31,3.85.11,8.13-.84,11.61,1.29,2.07,1.88,2.06,6.03-.63,7.39-3.57.73-7.27.46-10.9.69-.22,4.32.32,8.71-.32,13-2.14,3.53-7.03,1.93-10.25,1.12-.48-12.43-.18-24.89-.12-37.33.79-.94,1.58-1.87,2.36-2.81Z"/>
      <path class="cls-1" d="m376.6,384.63c-.37-2.96,2.42-5.88,5.41-5.46,5.47-.09,10.95-.23,16.41.14,3.92-.28,3.61,5.39,2.06,7.69-4.23,1.18-8.78.52-13.14.84-.06,2.77-.1,5.54-.06,8.31,3.33-.07,6.7-.53,10.01-.04,3.85.85,4.87,6.95,1.23,8.74-3.68.76-7.48.46-11.22.67-.04,2.17-.03,4.34.04,6.52,4.39.29,8.99-.42,13.22.92,1.16,1.69,1.27,4.11.5,5.99-.75,1.85-3.07,1.51-4.65,1.63-5.62,0-11.26.33-16.85-.25-1.63-.11-3.05-1.38-2.83-3.08-.25-10.87-.21-21.75-.14-32.63Z"/>
      <path class="cls-1" d="m488.66,379.69c2.96-.57,6.18-.96,9.06.2,1.7,4.6.59,9.79.96,14.64,5.33,0,10.66-.05,16,.02.2-4.57-.09-9.15.33-13.71.17-1.32,1.61-1.39,2.65-1.54,2.38-.19,4.76.11,7.13.37.68,13.37.46,26.79.13,40.17-3.25.66-6.63.82-9.84-.14-.45-5.49-.19-11.01-.17-16.51-5.41-.16-10.81-.11-16.22-.18-.32,5.26.22,10.59-.43,15.82-1.81,2.48-5.65,1.69-8.25,1.21-2.17-.44-2.32-2.99-2.26-4.75-.02-9.87-.08-19.75.1-29.62,0-2.03.33-4.03.82-5.99Z"/>
      <path class="cls-1" d="m557.34,382.29c2.18-4.03,8.13-4.31,11.66-2.07,3.65,3.89,4.59,9.44,6.63,14.23,2.49,7.61,6.16,14.9,7.62,22.81-1.18,3.88-6.58,4.08-9.58,2.46-.95-2.47-1.48-5.07-2.18-7.61-4.95-.16-9.9-.2-14.84-.1-.86,2.68-.47,6.23-2.86,8.12-2.54.69-5.61.78-7.9-.62-1.98-1.55-.74-4.23-.29-6.17,2.17-6.74,5-13.26,7.3-19.96,1.35-3.74,2.44-7.62,4.42-11.08Zm2.48,21.01c2.8.07,5.61.08,8.42.08-1.26-4.39-2.27-8.88-3.94-13.15-1.83,4.23-2.94,8.72-4.48,13.07Z"/>
      <path class="cls-1" d="m601.77,383.7c-.66-4.97,7.2-6.5,9.7-2.96,6.14,6.97,11.74,14.4,17.66,21.56-.77-5.83-.49-11.72-.46-17.58.04-2.05.19-5.21,2.85-5.42,2.42-.11,5.89-.77,7.44,1.6.57,12.06.33,24.17.29,36.25.38,4-5.13,3.67-7.76,3.1-6.79-7.32-12.65-15.47-18.9-23.24.11,6.41.16,12.82.17,19.24-.03,5.26-7.7,5.41-10.64,2.52-.57-2.04-.37-4.2-.42-6.29.07-9.6.02-19.19.07-28.79Z"/>
      <path class="cls-1" d="m664.34,379.62c7.38-.87,15.36-1.54,22.41,1.35,14.22,6.31,14.97,29.27,1.99,37.32-2.83,1.83-6.26,2.32-9.55,2.39-4.64.1-9.31.21-13.91-.32-1.79-.17-4.05-1.12-3.92-3.25-.26-10.82-.02-21.66-.1-32.48-.21-2.14,1.03-4.28,3.08-5.01Zm7.61,8.01c0,8.15,0,16.31.14,24.47,3.17,0,6.61.56,9.54-1,2.94-1.65,4.23-5.14,4.65-8.31.49-4.07.23-8.75-2.9-11.77-2.95-3.08-7.46-3.28-11.44-3.38Z"/>
      <path class="cls-1" d="m717.67,383.71c-1.11-6.42,11.72-6.37,10.73.06.12,9.47.09,18.94.17,28.41,4.43.03,8.89,0,13.32.57.47,2.25,1.38,4.85.05,7-1.26.96-2.93.69-4.39.81-5.16-.03-10.32.31-15.47-.05-2.3.12-4.5-2.06-4.35-4.36-.22-10.81.04-21.64-.06-32.45Z"/>
      <path class="cls-1" d="m759.4,385.63c-.47-2.91,1.53-6.43,4.71-6.42,6.5-.2,13.03-.24,19.53.29.39,2.44.98,5.1,0,7.46-4.23,1.27-8.9.49-13.31.83-.02,2.79-.06,5.59-.07,8.39,3.34-.1,6.76-.68,10.09-.02,3.7,1.1,4.6,6.79,1.13,8.73-3.69.64-7.46.38-11.17.56-.03,2.2-.03,4.39.02,6.6,4.04.11,8.11-.02,12.14.38,1.87.08,1.42,2.46,1.71,3.73.11,1.55.23,4.22-1.97,4.24-6.33.25-12.7.43-19.02.04-1.39,0-2.44-1.01-3.53-1.68-.43-11.03-.1-22.09-.27-33.13Z"/>
      <path class="cls-1" d="m808.61,379.55c5.99-.8,12.19-.91,18.18.08,7.12,1.4,13.2,7.32,14.35,14.56,1.31,7.77.52,17.01-5.97,22.38-6.06,5.47-14.78,4.06-22.25,4.14-2.9,0-7.88-.32-7.55-4.36-.27-10.58.06-21.15,0-31.73-.3-2.25,1.14-4.35,3.25-5.07Zm7.39,8.22c.15,8.08-.09,16.16.1,24.25,4.65.62,10.72.47,12.91-4.56,2-5.48,2.59-13.18-2.46-17.24-2.92-2.47-6.93-2.5-10.54-2.45Z"/>
      <path class="cls-1" d="m864.9,410.8c4.11-2.51,9.82,1.74,8.6,6.44-1.41,3.86-6.52,4.33-9.71,2.62-2.67-2.45-2.1-7.33,1.11-9.06Z"/>
      <path class="cls-1" d="m427.29,412.54c2.02-1.01,4.64-.62,6.6.43,1.93,1.91.88,4.88-.24,6.95-1.87,3.21-3.24,6.85-5.93,9.5-2.89,2.62-9.8-.61-7.6-4.74,2.03-4.21,3.85-8.79,7.17-12.13Z"/>
    </g>
  </g>
</svg>