<?xml version="1.0" encoding="UTF-8"?>
<svg id="Layer_2" data-name="Layer 2" xmlns="http://www.w3.org/2000/svg" viewBox="0 0 880.98 330.74">
  <defs>
    <style>
      .cls-1 {
        fill: #272d39;
      }

      .cls-1, .cls-2, .cls-3 {
        stroke-width: 0px;
      }

      .cls-2 {
        fill: #0a6afe;
      }

      .cls-3 {
        fill: #a0d606;
      }
    </style>
  </defs>
  <g id="Layer_1-2" data-name="Layer 1">
    <path class="cls-2" d="m73.88,5.38c23.11-7.75,48.89-7,71.71,1.46,30.58,11.14,55.04,37.34,64.27,68.54,3.53,11.08,4.64,22.77,4.44,34.35,15.42-.52,31.13.46,45.79,5.62,26.49,8.73,49.05,28.4,61.88,53.11,12.31,22.76,15.99,49.96,10.37,75.21-4.35,19.23-13.77,37.37-27.42,51.63-17.15,17.94-40.61,29.95-65.37,32.48-7.96.96-15.99.62-23.98.65-59.35-.02-118.71,0-178.06-.02-6.91-.16-14.13.9-20.68-1.89C6.83,322.79-.2,312.6.03,301.9.01,242.24,0,182.58.01,122.92c.2-9-.5-18.07.8-27.02,2.32-23.13,12.68-45.24,28.5-62.22,12.14-13,27.62-22.88,44.57-28.3Zm.29,61.22c-12.14,9.97-18.78,25.73-18.84,41.3-.12,55.47,0,110.94-.07,166.42,56.74-.01,113.48,0,170.22-.03,17.4.47,34.75-8.46,44.36-23,7.48-10.85,10.81-24.37,9.51-37.46-1.18-13.89-7.98-27.13-18.31-36.45-9.27-8.03-21.25-13.15-33.61-13.16-14.65.09-29.3-.07-43.95-.04-12.61.44-24-10.86-24.35-23.32-.07-11.32,0-22.63-.03-33.95.12-16.16-7.49-32.42-20.52-42.11-9.18-7.54-21.34-11.15-33.13-10.51-11.49.1-22.45,5.19-31.28,12.31Z"/>
    <g>
      <path class="cls-1" d="m562.43,19.75c14.84-12.18,33.85-19.16,53.04-19.61,6.33-.13,12.67-.06,19.02-.11,9.47-.27,19.36,4.24,24.39,12.46,7.16,10.55,5.39,26.21-3.97,34.88-3.97,3.61-8.95,6.14-14.27,6.95-11.66.92-24.11-1.87-35.03,3.49-7.85,3.67-12.7,11.42-15.69,19.25-3.44,8.72-5.55,18-6.03,27.36,10.2-.05,20.4.06,30.6.02,8.88-.16,17.4,4.75,22.33,12.02,4.35,5.99,4.98,13.8,3.95,20.92-2.11,11.49-12.6,20.82-24.33,21.27-10.81.12-21.63.04-32.45.04-.34,47.73-.02,95.46-.16,143.19-.34,8.72-5.08,17.14-12.45,21.83-11.3,7.51-27.63,6.19-37.36-3.36-5.54-5.18-8.47-12.93-8.15-20.47.01-47.06-.05-94.12.04-141.18-9.15-.5-18.89,1.56-27.42-2.8-13.42-6.14-18.8-24.16-11.79-36.96,4.56-8.62,13.97-14.64,23.81-14.54,5.11-.02,10.23.06,15.35-.01.12-11.7,2.18-23.35,5.2-34.64,5.59-19.08,15.85-37.26,31.37-50Z"/>
      <path class="cls-1" d="m754.57,103.53c23.45-3.2,48.07-.39,69.55,9.85,25.1,11.8,45.47,33.8,53.94,60.35,2.77,8.66,4.17,18.2,1.43,27.05-2.1,7.6-8.19,13.52-15.05,17.04-4.38,2.34-9.36,2.93-14.14,3.93-44.44,9.07-88.9,18.08-133.37,26.96,8.81,14.97,24.81,25.08,41.78,27.94l.65.49c22.92,3.64,48.23.28,66.85-14.49,7.56-6.66,18.94-9.01,28.26-4.79,8.16,3.02,14.2,10.62,15.78,19.12,1.73,6.29-.4,12.85-3.43,18.38-3.09,5.38-8.18,9.18-13.1,12.78-18.36,12.53-40.05,19.86-62.15,21.84-19.35,1.66-39.25.93-57.83-5.2-21.65-6.82-41.14-20.18-55.42-37.8-14.59-17.76-22.83-40.3-24.22-63.16-1.1-26.9,6.91-54.37,23.68-75.6,18.39-24.19,46.61-40.79,76.79-44.69Zm-29.43,71.03c-7.77,8.55-13.69,19.27-15.24,30.83,38.1-8.35,76.41-15.71,114.56-23.79-5.61-10.1-14.99-18-25.74-22.16-24.58-9.55-55.3-4.55-73.58,15.12Z"/>
      <path class="cls-1" d="m415.92,103.67c6.52-2.04,13.76-1.73,20.09.85,9.51,3.68,16.73,13.09,17.31,23.33.39,24.02.17,48.04.28,72.07-.58,12,.16,24.02,0,36.03-.05,21.34.05,42.68-.06,64.02.18,9.04-4.16,18.14-11.66,23.29-7.07,4.73-16.09,6.57-24.38,4.47-8.56-1.99-16.38-7.79-19.72-16.07-2.5-4.9-2.06-10.47-2.32-15.78.33-14.97.11-29.95.04-44.91.55-10.03-.34-20.06.15-30.08.16-16.66-.22-33.31-.31-49.96.51-13.34.24-26.7.31-40.05-.16-12.13,8.29-24.25,20.27-27.21Z"/>
    </g>
    <path class="cls-3" d="m417.85,5.37c8.7-2.21,17.89.24,25.44,4.74,8,5.68,13.71,14.87,14.34,24.77.75,13.4-7.66,26.87-20.3,31.63-11.2,4.57-24.82,2.59-33.97-5.43-12.05-10-14.69-29.22-5.67-42.06,4.41-7.21,12.07-11.76,20.16-13.65Z"/>
  </g>
</svg>